# xmcd
#
# Track frame offsets: 
#        150
#        16025
#        27654
#        38522
#        54780
#        73957
#        83333
#        109213
#        122915
#        133649
#
# Disc length: 2000 seconds
#
# Revision: 0
# Processed by: cddbd v1.5.2PL0 Copyright (c) Steve Scherf et al.
# Submitted via: ExactAudioCopy v0.99pb4
#
DISCID=7a07ce0a
DTITLE=Micah Ciampa - Eccentricity
DYEAR=2001
DGENRE=Blues
TTITLE0=Messenger Song
TTITLE1=The Arguement
TTITLE2=Diner Song
TTITLE3=Better Wine
TTITLE4=Superbowl Rag
TTITLE5=If It Was Me
TTITLE6=St. Sign Sing
TTITLE7=Road Song
TTITLE8=Application Song
TTITLE9=Bar Song
EXTD=
EXTT0=
EXTT1=
EXTT2=
EXTT3=
EXTT4=
EXTT5=
EXTT6=
EXTT7=
EXTT8=
EXTT9=
PLAYORDER=
